<?xml version="1.0" encoding="UTF-8" standalone="no"?>
<!-- Created with Inkscape (http://www.inkscape.org/) -->

<svg
   width="1280"
   height="720"
   viewBox="0 0 1280 720"
   version="1.1"
   id="svg5"
   inkscape:version="1.2.2 (732a01da63, 2022-12-09)"
   sodipodi:docname="lrback.svg"
   xmlns:inkscape="http://www.inkscape.org/namespaces/inkscape"
   xmlns:sodipodi="http://sodipodi.sourceforge.net/DTD/sodipodi-0.dtd"
   xmlns="http://www.w3.org/2000/svg"
   xmlns:svg="http://www.w3.org/2000/svg">
  <sodipodi:namedview
     id="namedview7"
     pagecolor="#ffffff"
     bordercolor="#000000"
     borderopacity="0.25"
     inkscape:showpageshadow="2"
     inkscape:pageopacity="0.0"
     inkscape:pagecheckerboard="0"
     inkscape:deskcolor="#d1d1d1"
     inkscape:document-units="px"
     showgrid="false"
     inkscape:zoom="0.32777778"
     inkscape:cx="640.67797"
     inkscape:cy="361.52542"
     inkscape:window-width="1280"
     inkscape:window-height="738"
     inkscape:window-x="-8"
     inkscape:window-y="-8"
     inkscape:window-maximized="1"
     inkscape:current-layer="layer1" />
  <defs
     id="defs2">
    <inkscape:path-effect
       effect="spiro"
       id="path-effect1473"
       is_visible="true"
       lpeversion="1" />
    <inkscape:path-effect
       effect="spiro"
       id="path-effect1469"
       is_visible="true"
       lpeversion="1" />
    <inkscape:path-effect
       effect="spiro"
       id="path-effect1465"
       is_visible="true"
       lpeversion="1" />
    <inkscape:path-effect
       effect="spiro"
       id="path-effect1461"
       is_visible="true"
       lpeversion="1" />
    <inkscape:path-effect
       effect="spiro"
       id="path-effect1164"
       is_visible="true"
       lpeversion="1" />
    <inkscape:path-effect
       effect="spiro"
       id="path-effect1160"
       is_visible="true"
       lpeversion="1" />
    <inkscape:path-effect
       effect="spiro"
       id="path-effect1156"
       is_visible="true"
       lpeversion="1" />
    <inkscape:path-effect
       effect="spiro"
       id="path-effect1152"
       is_visible="true"
       lpeversion="1" />
    <inkscape:path-effect
       effect="spiro"
       id="path-effect1148"
       is_visible="true"
       lpeversion="1" />
    <inkscape:path-effect
       effect="spiro"
       id="path-effect1144"
       is_visible="true"
       lpeversion="1" />
    <inkscape:path-effect
       effect="spiro"
       id="path-effect1140"
       is_visible="true"
       lpeversion="1" />
    <inkscape:path-effect
       effect="spiro"
       id="path-effect1136"
       is_visible="true"
       lpeversion="1" />
    <inkscape:path-effect
       effect="spiro"
       id="path-effect1132"
       is_visible="true"
       lpeversion="1" />
    <inkscape:path-effect
       effect="bspline"
       id="path-effect1002"
       is_visible="true"
       lpeversion="1"
       weight="33.333333"
       steps="2"
       helper_size="0"
       apply_no_weight="true"
       apply_with_weight="true"
       only_selected="false" />
    <inkscape:path-effect
       effect="bspline"
       id="path-effect998"
       is_visible="true"
       lpeversion="1"
       weight="33.333333"
       steps="2"
       helper_size="0"
       apply_no_weight="true"
       apply_with_weight="true"
       only_selected="false" />
    <inkscape:path-effect
       effect="spiro"
       id="path-effect994"
       is_visible="true"
       lpeversion="1" />
  </defs>
  <g
     inkscape:label="Слой 1"
     inkscape:groupmode="layer"
     id="layer1">
    <rect
       style="fill:#2b0000;stroke-width:0.997888"
       id="rect391"
       width="1275.2543"
       height="720"
       x="3.0508475"
       y="3.0508475" />
    <path
       style="fill:#280b0b;stroke-width:3.05085"
       d="M 4.5762712,363.05085 V 3.0508475 H 640.67797 1276.7797 v 360.0000025 360 H 640.67797 4.5762712 Z"
       id="path501" />
    <path
       style="fill:#00222b;stroke-width:3.05085"
       d="M 4.5762712,363.05085 V 3.0508475 H 640.67797 1276.7797 v 360.0000025 360 H 640.67797 4.5762712 Z"
       id="path572" />
    <path
       style="fill:#00112b;stroke-width:3.05085"
       d="M 4.5762712,363.05085 V 3.0508475 H 640.67797 1276.7797 v 360.0000025 360 H 640.67797 4.5762712 Z"
       id="path919" />
    <path
       style="fill:#003380"
       d="M 82.372881,628.47458 286.77966,466.77966"
       id="path1134"
       inkscape:path-effect="#path-effect1136"
       inkscape:original-d="M 82.372881,628.47458 286.77966,466.77966 228.81356,665.08475 134.23729,692.54237" />
    <path
       style="fill:#003380"
       d="m 402.71186,381.35593 128.1356,244.0678"
       id="path1138"
       inkscape:path-effect="#path-effect1140"
       inkscape:original-d="M 530.84746,625.42373 402.71186,381.35593 576.61017,500.33898" />
    <path
       style="fill:#003380"
       d="M 106.77966,347.79661 225.76271,222.71186"
       id="path1146"
       inkscape:path-effect="#path-effect1148"
       inkscape:original-d="M 106.77966,347.79661 225.76271,222.71186 88.474576,256.27119" />
    <path
       style="fill:#003380"
       d="M 1049.4915,433.22034 927.45763,637.62712"
       id="path1150"
       inkscape:path-effect="#path-effect1152"
       inkscape:original-d="m 927.45763,637.62712 122.03387,-204.40678 6.1017,186.10169 -70.16947,64.0678" />
    <path
       style="fill:#003380"
       d="M 985.42373,149.49153 1141.0169,323.38983 964.0678,274.57627"
       id="path1166" />
    <path
       style="fill:#003380"
       d="m 982.37288,137.28814 -149.49152,6.10169"
       id="path1168" />
    <path
       style="fill:#003380"
       d="M 854.23729,146.44068 1025.0847,67.118644 896.94915,189.15254"
       id="path1170" />
    <path
       style="fill:#003380"
       d="M 869.49153,295.9322 570.50847,161.69492 747.45763,384.40678 884.74576,390.50847"
       id="path1172" />
    <path
       style="fill:#003380"
       d="m 445.42373,207.45763 -180,79.32203 137.28813,-149.49152 70.1695,6.10169"
       id="path1174" />
    <path
       style="fill:#002255;stroke-width:3.05085"
       d="m 98.345365,299.94131 c -4.525396,-22.96448 -7.911181,-41.97733 -7.523966,-42.25078 2.417809,-1.70746 125.878741,-31.32937 126.787951,-30.42017 1.3784,1.37841 -106.4172,114.42456 -109.10998,114.42456 -1.05931,0 -5.62861,-18.78912 -10.154005,-41.75361 z"
       id="path1415" />
    <path
       style="fill:#002255;stroke-width:3.05085"
       d="M 109.95534,660.37037 C 97.072916,644.35373 86.969661,629.96854 87.503663,628.40327 88.696842,624.90584 280.26735,473.05188 281.71433,474.45652 c 0.94166,0.91411 -39.36829,142.25193 -50.09998,175.66432 l -4.50279,14.01914 -43.5069,12.67577 c -23.9288,6.97168 -45.01886,12.67578 -46.86681,12.67578 -1.84796,0 -13.90008,-13.10453 -26.78251,-29.12116 z"
       id="path1417" />
    <path
       style="fill:#002255;stroke-width:3.05085"
       d="M 781.90066,385.18227 749.22505,384.2028 663.89513,276.80185 c -46.93145,-59.07053 -84.93344,-107.79744 -84.44886,-108.28202 0.86477,-0.86477 285.32181,126.24825 287.58382,128.51026 0.63512,0.63512 3.84714,17.46571 7.13782,37.40132 3.29069,19.93561 6.63933,40.02198 7.44146,44.63639 l 1.45843,8.38983 -34.24577,-0.64795 c -18.83517,-0.35636 -48.94978,-1.0887 -66.92137,-1.62741 z"
       id="path1419" />
    <path
       style="fill:#002255;stroke-width:3.05085"
       d="m 337.5765,210.3157 65.99293,-71.57814 33.60116,2.73822 33.60116,2.73821 -10.67528,24.75741 c -5.8714,13.61658 -11.78831,27.59487 -13.1487,31.06288 -1.80325,4.59699 -24.35135,15.94849 -83.21833,41.89503 -44.40971,19.57426 -83.31013,36.57393 -86.4454,37.77704 -3.13526,1.20311 23.99634,-30.02268 60.29246,-69.39065 z"
       id="path1421" />
    <path
       style="fill:#002255;stroke-width:3.05085"
       d="m 470.49743,507.27138 c -33.11407,-63.07403 -59.62515,-115.2623 -58.91351,-115.97394 0.71164,-0.71165 37.71068,23.64018 82.22007,54.11516 l 80.92619,55.40906 -11.77406,32.55527 c -6.47572,17.9054 -16.38142,45.1596 -22.01267,60.56489 l -10.23861,28.00961 z"
       id="path1423" />
    <path
       style="fill:#002255;stroke-width:3.05085"
       d="m 1049.4915,296.88877 c -45.3051,-12.61932 -82.68504,-23.22867 -83.0666,-23.57634 -1.38786,-1.26459 18.35468,-113.20907 20.36432,-115.47006 1.13762,-1.27991 35.28848,34.75822 75.89078,80.08475 40.6024,45.32652 72.7789,82.29801 71.5034,82.15886 -1.2754,-0.13916 -39.3868,-10.5779 -84.6919,-23.19721 z"
       id="path1425" />
    <path
       style="fill:#002255;stroke-width:3.05085"
       d="m 877.35004,166.50466 c -18.1978,-18.36101 -18.92666,-19.64049 -12.99622,-22.81436 16.78707,-8.98417 144.95338,-67.433902 145.86578,-66.521505 0.9238,0.923754 -91.4362,89.951075 -107.39657,103.521355 -6.00828,5.10854 -6.77195,4.68327 -25.47299,-14.18549 z"
       id="path1427" />
    <path
       style="fill:#002255;stroke-width:3.05085"
       d="m 957.11685,659.52517 c -13.89082,-11.20494 -25.56031,-21.1524 -25.9322,-22.10545 -0.3719,-0.95305 25.40857,-45.57169 57.28993,-99.15254 l 57.96612,-97.41972 1.9365,22.88135 c 1.065,12.58475 2.8427,52.55115 3.9503,88.81422 l 2.0139,65.93286 -33.6688,30.93155 c -18.5178,17.01235 -34.7107,30.83228 -35.98422,30.71095 -1.27352,-0.12133 -13.68071,-9.38827 -27.57153,-20.59322 z"
       id="path1429" />
    <path
       style="fill:#002255"
       d="m 689.49153,668.13559 73.22033,-170.84745 -128.13559,88.47457 0,73.22034"
       id="path1431" />
    <path
       style="fill:#002255"
       d="M 634.57627,424.0678 494.23729,320.33898 515.59322,244.0678 588.81356,265.42373"
       id="path1433" />
    <path
       style="fill:#002255"
       d="m 1195.9322,518.64407 -79.322,-125.08475 143.3898,61.01695 3.0508,54.91526"
       id="path1437" />
    <path
       style="fill:#002255"
       d="m 1125.7627,131.18644 48.8136,-97.627118 51.8644,3.050847 -3.0509,45.762712"
       id="path1439" />
    <path
       style="fill:#002255"
       d="M 51.864407,94.576271 265.42373,48.813559 88.474576,149.49153 36.610169,128.13559"
       id="path1441" />
    <path
       style="fill:#002255"
       d="M 140.33898,396.61017 344.74576,311.18644 201.35593,445.42373 c -10.16949,1.01695 -20.33898,2.0339 -30.50847,3.05085"
       id="path1447" />
    <path
       style="fill:#002255"
       d="M 125.08475,454.57627 79.322034,521.69492 12.20339,436.27119 88.474576,387.45763"
       id="path1449" />
    <path
       style="fill:#002255"
       d="M 399.66102,430.16949 387.45763,668.13559 314.23729,417.9661 360,372.20339"
       id="path1451" />
    <path
       style="fill:#002255"
       d="M 482.0339,36.610169 774.91525,173.89831 637.62712,27.457627"
       id="path1455" />
    <path
       style="fill:#002255"
       d="M 384.40678,67.118644 305.08475,158.64407 329.49153,39.661017 378.30508,12.20339"
       id="path1457" />
    <path
       style="fill:#002255"
       d="M 890.84746,460.67797 781.01695,588.81356"
       id="path1459"
       inkscape:path-effect="#path-effect1461"
       inkscape:original-d="m 890.84746,460.67797 -109.83051,128.13559 48.81356,67.11864 76.27118,-51.8644" />
    <path
       style="fill:#002255"
       d="M 1141.0169,216.61017 1260,149.49153"
       id="path1467"
       inkscape:path-effect="#path-effect1469"
       inkscape:original-d="m 1260,149.49153 -118.9831,67.11864 137.2882,51.86441" />
  </g>
</svg>
