<?xml version="1.0" encoding="UTF-8" standalone="no"?>
<!-- Created with Inkscape (http://www.inkscape.org/) -->

<svg
   width="1280"
   height="720"
   viewBox="0 0 1280 720"
   version="1.1"
   id="svg5"
   inkscape:version="1.2.2 (732a01da63, 2022-12-09)"
   sodipodi:docname="mnpage.svg"
   xmlns:inkscape="http://www.inkscape.org/namespaces/inkscape"
   xmlns:sodipodi="http://sodipodi.sourceforge.net/DTD/sodipodi-0.dtd"
   xmlns="http://www.w3.org/2000/svg"
   xmlns:svg="http://www.w3.org/2000/svg">
  <sodipodi:namedview
     id="namedview7"
     pagecolor="#ffffff"
     bordercolor="#000000"
     borderopacity="0.25"
     inkscape:showpageshadow="2"
     inkscape:pageopacity="0.0"
     inkscape:pagecheckerboard="0"
     inkscape:deskcolor="#d1d1d1"
     inkscape:document-units="px"
     showgrid="false"
     inkscape:zoom="0.32777778"
     inkscape:cx="640.67797"
     inkscape:cy="361.52542"
     inkscape:window-width="1280"
     inkscape:window-height="738"
     inkscape:window-x="-8"
     inkscape:window-y="-8"
     inkscape:window-maximized="1"
     inkscape:current-layer="layer1" />
  <defs
     id="defs2">
    <inkscape:path-effect
       effect="spiro"
       id="path-effect791"
       is_visible="true"
       lpeversion="1" />
    <inkscape:path-effect
       effect="spiro"
       id="path-effect787"
       is_visible="true"
       lpeversion="1" />
    <inkscape:path-effect
       effect="spiro"
       id="path-effect783"
       is_visible="true"
       lpeversion="1" />
    <inkscape:path-effect
       effect="spiro"
       id="path-effect775"
       is_visible="true"
       lpeversion="1" />
    <inkscape:path-effect
       effect="spiro"
       id="path-effect771"
       is_visible="true"
       lpeversion="1" />
    <inkscape:path-effect
       effect="spiro"
       id="path-effect767"
       is_visible="true"
       lpeversion="1" />
    <inkscape:path-effect
       effect="spiro"
       id="path-effect763"
       is_visible="true"
       lpeversion="1" />
    <inkscape:path-effect
       effect="spiro"
       id="path-effect759"
       is_visible="true"
       lpeversion="1" />
  </defs>
  <g
     inkscape:label="Слой 1"
     inkscape:groupmode="layer"
     id="layer1"
     style="display:inline">
    <rect
       style="fill:#00002b;stroke-width:1.0202"
       id="rect163"
       width="1284.4069"
       height="723.05084"
       x="-6.1016951"
       y="2.9095148e-07" />
    <path
       style="fill:#00112b;stroke-width:3.05085"
       d="M -4.5762712,361.52542 V 0 H 636.10169 1276.7797 V 361.52542 723.05085 H 636.10169 -4.5762712 Z"
       id="path357" />
    <path
       style="fill:#00aad4"
       d="M 387.45763,472.88136 674.23729,356.94915"
       id="path757"
       inkscape:path-effect="#path-effect759"
       inkscape:original-d="M 387.45763,472.88136 674.23729,356.94915 561.35593,579.66102 414.91525,665.08475" />
    <path
       style="fill:#00aad4"
       d="M 76.271186,70.169492 237.9661,97.627119"
       id="path761"
       inkscape:path-effect="#path-effect763"
       inkscape:original-d="M 76.271186,70.169492 237.9661,97.627119 76.271186,143.38983 24.40678,94.576271" />
    <path
       style="fill:#00aad4"
       d="M 970.16949,311.18644 1043.3898,103.72881"
       id="path765"
       inkscape:path-effect="#path-effect767"
       inkscape:original-d="m 1043.3898,103.72881 -73.22031,207.45763 183.05081,-122.0339 0,-91.525421" />
    <path
       style="fill:#00aad4"
       d="m 122.0339,451.52542 180,-161.69491"
       id="path769"
       inkscape:path-effect="#path-effect771"
       inkscape:original-d="m 219.66102,494.23729 82.37288,-204.40678 -180,161.69491 -3.05085,82.37289" />
    <path
       style="fill:#00aad4"
       d="M 872.54237,439.32203 1022.0339,662.0339"
       id="path773"
       inkscape:path-effect="#path-effect775"
       inkscape:original-d="M 872.54237,439.32203 1022.0339,662.0339" />
    <path
       style="fill:#00aad4"
       d="M 506.44068,64.067797 475.9322,262.37288"
       id="path781"
       inkscape:original-d="M 573.55932,79.322034 475.9322,262.37288 506.44068,64.067797 570.50847,27.457627"
       inkscape:path-effect="#path-effect783" />
    <path
       style="fill:#00aad4"
       d="M 848.13559,109.83051 613.22034,271.52542"
       id="path785"
       inkscape:path-effect="#path-effect787"
       inkscape:original-d="m 848.13559,109.83051 -234.91525,161.69491 274.57627,21.35594 64.0678,-118.98305" />
    <path
       style="fill:#00aad4"
       d="M 732.20339,518.64407 634.57627,662.0339"
       id="path789"
       inkscape:original-d="m 634.57627,662.0339 97.62712,-143.38983 91.52542,125.08474"
       inkscape:path-effect="#path-effect791" />
    <path
       style="fill:#00aad4"
       d="M 143.38983,500.33898 500.33898,424.0678 173.89831,634.57627 79.322034,594.91525"
       id="path954" />
    <path
       style="fill:#00aad4"
       d="m 869.49153,381.35593 73.22033,198.30509 67.11864,9.15254 15.2542,-67.11864"
       id="path962" />
    <path
       style="fill:#00aad4"
       d="M 674.23729,353.89831 506.44068,588.81356 680.33898,683.38983 820.67797,579.66102"
       id="path964" />
    <path
       style="fill:#00aad4"
       d="M 149.49153,146.44068 369.15254,265.42373 100.67797,332.54237 70.169492,210.50847"
       id="path968" />
    <path
       style="fill:#00aad4"
       d="M 1080,143.38983 881.69492,213.55932 1018.9831,67.118644 1141.0169,51.864407"
       id="path970" />
    <path
       style="fill:#00aad4"
       d="M 585.76271,122.0339 408.81356,42.711864 469.83051,186.10169 597.9661,222.71186"
       id="path972" />
    <path
       style="fill:#00aad4"
       d="m 1244.7458,427.11864 -198.3051,-91.52542 143.3898,-118.98305 79.322,103.72881"
       id="path974" />
    <path
       style="fill:#00112b;fill-opacity:1;stroke-width:3.05085"
       d="m 1148.6174,380.9625 c -51.1633,-23.5694 -94.0291,-43.80666 -95.2574,-44.97169 -2.0479,-1.94251 128.5311,-112.40303 134.8497,-114.0732 3.8079,-1.00653 79.941,98.71346 78.4685,102.77898 -0.6513,1.79823 -5.718,23.86273 -11.2593,49.03222 -5.5414,25.1695 -10.9081,46.73571 -11.9262,47.92493 -1.0181,1.18922 -43.7119,-17.12183 -94.8753,-40.69124 z"
       id="path1428" />
    <path
       style="fill:#00112b;fill-opacity:1;stroke-width:3.05085"
       d=""
       id="path1430" />
    <path
       style="fill:#00112b;fill-opacity:1;stroke-width:3.05085"
       d="m 1188.3051,396.78737 c -29.3644,-13.00201 -71.2373,-32.19778 -93.0509,-42.65725 l -39.661,-19.01723 15.2543,-13.69362 c 31.4134,-28.19958 111.8137,-94.16652 115.8821,-95.079 4.2337,-0.94959 29.3117,29.05177 61.4032,73.45805 l 17.1251,23.69662 -9.8943,43.42202 c -5.4418,23.88211 -10.7435,45.69191 -11.7815,48.46622 -1.613,4.31134 -9.6441,1.6096 -55.277,-18.59581 z"
       id="path1432" />
    <path
       style="fill:#00112b;fill-opacity:1;stroke-width:3.05085"
       d="m 1205.0847,404.40565 c -51.3102,-22.19737 -144.858,-66.25173 -146.572,-69.02495 -0.7859,-1.27161 16.0832,-17.27777 37.4868,-35.56925 68.5201,-58.557 89.2169,-74.71608 93.5619,-73.04874 3.7299,1.43129 49.9206,59.86998 68.6602,86.86613 l 6.9899,10.06952 -9.8711,43.32031 c -5.4291,23.82617 -10.7203,45.54885 -11.7583,48.27263 -1.6187,4.24786 -7.0949,2.69941 -38.4974,-10.88565 z"
       id="path1434" />
    <path
       style="fill:#00112b;fill-opacity:1;stroke-width:3.05085"
       d="m 1205.0847,404.49992 c -49.7072,-21.60203 -137.3548,-62.59114 -143.5923,-67.15213 -4.4292,-3.23868 -0.095,-7.96272 34.1752,-37.25131 69.3128,-59.23691 89.529,-75.00868 93.9643,-73.3067 4.3147,1.65569 36.3357,41.807 62.0714,77.83156 l 13.8357,19.36711 -10.0276,43.17527 c -5.5152,23.74639 -10.8802,45.44128 -11.9221,48.21085 -1.6388,4.35632 -6.8329,2.88938 -38.5046,-10.87465 z"
       id="path1436" />
    <path
       style="fill:#00112b;fill-opacity:1;stroke-width:3.05085"
       d="M -4.5762712,361.52542 V 0 H 636.10169 1276.7797 V 361.52542 723.05085 H 636.10169 -4.5762712 Z M 752.17305,632.65134 c 37.67769,-27.90616 69.01633,-51.18456 69.64142,-51.72971 2.00932,-1.7525 -144.41202,-226.69002 -147.57718,-226.71324 -4.44149,-0.0326 -171.23757,235.46767 -167.71457,236.79711 1.63284,0.61615 40.0366,21.51128 85.34169,46.43363 45.30508,24.92231 84.4948,45.45674 87.0883,45.63201 2.59346,0.17512 35.54262,-22.51364 73.22034,-50.4198 z M 340.84721,529.10222 c 88.31651,-56.92994 158.86974,-103.90393 156.78488,-104.38664 -3.25724,-0.75414 -340.08155,70.15448 -352.71684,74.25434 -4.24725,1.37815 -68.719755,95.62149 -66.564993,97.30208 6.26864,4.88916 91.056973,37.8684 95.683893,37.21716 3.43064,-0.48285 78.49651,-47.457 166.81306,-104.38694 z m 671.58949,54.37236 c 0.8206,-2.93644 4.4342,-18.24346 8.0302,-34.01558 5.381,-23.60081 5.8283,-29.32392 2.5272,-32.33395 -2.2061,-2.01158 -32.84156,-29.5023 -68.07885,-61.09053 -35.23728,-31.58824 -68.50909,-61.56275 -73.93734,-66.61004 -5.42826,-5.04729 -10.49712,-8.54933 -11.26413,-7.78232 -1.40095,1.40092 65.92137,186.3998 70.95014,194.96801 1.65066,2.81248 11.38183,5.89384 25.24827,7.99481 35.08781,5.31634 44.78891,5.08063 46.52451,-1.1304 z m 235.0165,-161.69492 c 0.8763,-2.93644 6.4932,-27.08054 12.4821,-53.65354 l 10.8889,-48.31457 -24.8758,-32.53289 c -13.6816,-17.89309 -31.2187,-41.057 -38.9714,-51.47535 -7.7526,-10.41835 -15.4685,-18.96166 -17.1465,-18.98513 -3.0741,-0.043 -142.7728,114.6718 -144.1058,118.3337 -0.7642,2.09954 190.445,91.35659 196.5273,91.7396 1.9844,0.12478 4.325,-2.17538 5.2012,-5.11182 z M 238.72881,299.86352 c 72.57204,-18.06384 131.9285,-33.54576 131.90327,-34.40428 -0.0541,-1.83917 -212.67243,-117.02327 -218.73834,-118.49954 -3.1014,-0.7548 -58.13383,40.2829 -81.111702,60.48502 -1.341067,1.17906 3.191595,24.66007 10.072583,52.18002 18.309631,73.22787 18.212986,72.91052 22.229069,72.99988 2.03279,0.0453 63.07309,-14.69727 135.64512,-32.7611 z m 359.52975,-88.59233 c -0.97313,-6.29238 -3.88849,-29.22266 -6.4786,-50.9562 -2.59011,-21.73353 -5.00357,-39.72905 -5.36327,-39.99005 -4.6904,-3.40346 -174.63694,-77.563243 -176.32589,-76.943555 -1.28301,0.470746 11.34134,33.118795 28.05416,72.551215 l 30.38689,71.69531 60.14087,17.30811 c 33.07744,9.51946 62.66404,17.41335 65.74799,17.54198 4.78422,0.19955 5.34747,-1.4452 3.83785,-11.20681 z m 386.55607,-32.32761 97.01797,-34.46119 30.3467,-45.546281 c 16.6906,-25.050453 28.869,-46.040067 27.0629,-46.643589 -4.2823,-1.431027 -112.6105,11.519036 -119.2395,14.254468 -2.7952,1.153395 -29.41245,28.181826 -59.14958,60.063182 -29.73713,31.88136 -60.34775,64.48729 -68.02359,72.45763 -7.93351,8.23789 -12.03074,14.45818 -9.49451,14.41425 2.45389,-0.0425 48.11971,-15.58481 101.47961,-34.53847 z"
       id="path1438" />
    <path
       style="fill:#00112b;fill-opacity:1;stroke-width:3.05085"
       d=""
       id="path1440" />
    <path
       style="fill:#00112b;fill-opacity:1;stroke-width:3.05085"
       d="M -4.5762712,361.52542 V 0 H 636.10169 1276.7797 V 361.52542 723.05085 H 636.10169 -4.5762712 Z M 747.45763,635.71091 c 35.23729,-26.11388 66.58901,-49.27723 69.67049,-51.47408 5.1974,-3.70535 0.33242,-12.12547 -67.25572,-116.40368 -40.07212,-61.82518 -74.13904,-112.40942 -75.70427,-112.40942 -3.48923,0 -166.07987,227.3926 -166.15111,232.37213 -0.0494,3.46079 166.23055,95.56606 172.32196,95.45198 1.67797,-0.0314 31.88136,-21.42305 67.11865,-47.53693 z M 252.68657,585.32812 c 161.97437,-103.8597 246.33728,-159.01615 245.10435,-160.24909 -0.70448,-0.70444 -75.92782,14.64437 -167.16298,34.10848 -91.23521,19.46413 -170.28518,36.16944 -175.66663,37.12292 -12.00793,2.12757 -11.70467,1.77965 -47.86014,54.90995 -20.327517,29.87121 -28.298885,43.9563 -25.763554,45.52325 5.355024,3.30956 89.056444,37.63864 92.026924,37.74365 1.38439,0.0491 37.07931,-22.07267 79.32203,-49.15916 z m 760.13053,-3.37897 c 15.0787,-65.61534 14.5302,-61.17544 8.184,-66.24836 -3.2227,-2.5761 -37.73286,-33.51435 -76.68925,-68.75164 -38.95636,-35.23729 -72.0796,-64.52832 -73.60716,-65.0912 -1.52752,-0.56288 1.42082,10.42017 6.55191,24.40678 36.56856,99.68052 61.82463,166.93911 64.02161,170.49389 2.45291,3.96894 38.64667,11.03483 60.10439,11.73384 7.8556,0.25596 10.1774,-1.07271 11.4345,-6.54331 z m 234.9707,-161.69491 c 0.898,-3.77543 6.4219,-27.89951 12.2753,-53.60907 l 10.6425,-46.74465 -38.1459,-49.93751 c -20.9802,-27.46563 -39.5309,-50.7935 -41.2237,-51.83971 -3.752,-2.31891 -146.6187,115.05283 -143.7783,118.12067 2.9172,3.15058 190.3718,90.34898 194.8418,90.63466 2.0655,0.13211 4.4902,-2.84897 5.3883,-6.62439 z M 235.67797,299.86352 c 72.57203,-18.06384 131.94915,-33.77144 131.94915,-34.90578 0,-1.89838 -33.49889,-20.4469 -167.02784,-92.48421 -57.63002,-31.09072 -45.62398,-32.29309 -97.94879,9.80932 -17.864547,14.37445 -32.82169,26.37433 -33.238088,26.6664 -0.672818,0.47192 19.025729,82.5231 26.925148,112.15244 1.677597,6.29238 4.02692,11.47769 5.22072,11.52293 1.1938,0.0453 61.54766,-14.69727 134.1197,-32.7611 z m 362.57754,-88.59233 c -0.97478,-6.29238 -3.98661,-29.28814 -6.69295,-51.1017 -2.70635,-21.81356 -5.11844,-39.7631 -5.36025,-39.88788 -25.17624,-12.9922 -174.63814,-76.669062 -175.29956,-74.68477 -1.0458,3.137419 53.47516,133.966 57.91774,138.97943 2.85169,3.21814 115.98651,37.28748 125.60022,37.82316 4.79291,0.26707 5.34978,-1.34886 3.8348,-11.12824 z M 983.89831,179.07299 1080,144.91525 1110.2707,99.931744 c 16.6489,-24.740933 29.466,-45.788247 28.4825,-46.771813 -0.9836,-0.983569 -27.5975,1.310049 -59.142,5.096926 l -57.3537,6.885228 -13.3589,12.313855 c -16.17654,14.910996 -123.73664,129.51751 -125.16978,133.36982 -0.55934,1.50346 0.12722,2.65963 1.52543,2.56926 1.39829,-0.0904 45.78812,-15.53528 98.64406,-34.32203 z"
       id="path1442" />
    <path
       style="fill:#00112b;fill-opacity:1;stroke-width:3.05085"
       d="M -4.5762712,361.52542 V 0 H 636.10169 1276.7797 V 361.52542 723.05085 H 636.10169 -4.5762712 Z M 708.16445,664.15174 c 59.1052,-41.97417 110.98809,-81.76412 110.98809,-85.11883 0,-3.92998 -30.03864,-51.42518 -98.6177,-155.92814 -37.4248,-57.0291 -46.38618,-68.88179 -49.59256,-65.59322 -7.67175,7.86841 -162.8705,226.7827 -162.89957,229.77659 -0.0153,1.67796 5.79456,6.38209 12.91298,10.45366 30.09829,17.21539 156.49027,85.62005 158.22571,85.63345 1.04128,0.009 14.08366,-8.64257 28.98305,-19.22351 z M 203.02594,616.77931 c 28.93725,-17.85793 290.09822,-186.10356 292.48254,-188.4237 0.69914,-0.68034 0.65157,-1.85656 -0.10586,-2.61387 -0.75728,-0.75729 -75.46491,14.40375 -166.01693,33.69121 -90.55191,19.28748 -169.44501,36.09112 -175.31789,37.34142 -9.36632,1.99407 -13.93879,6.9434 -37.22383,40.29184 -29.45523,42.18529 -38.135849,56.72667 -35.460576,59.40193 1.853829,1.85384 88.164936,37.86095 91.134066,38.01914 0.9185,0.0491 14.64732,-7.91964 30.50848,-17.70797 z m 809.79266,-34.83016 c 10.6658,-46.37035 13.013,-58.65355 11.7506,-61.49157 -3.0605,-6.88021 -152.06252,-138.40969 -152.87905,-134.95185 -0.63412,2.68544 51.27239,146.77196 67.96205,188.65491 2.4304,6.09908 31.55363,12.79639 61.7304,14.19581 7.9117,0.3669 10.1687,-0.89765 11.436,-6.4073 z m 234.9692,-161.69491 c 0.898,-3.77543 6.4172,-27.87883 12.2648,-53.56315 l 10.6319,-46.69874 -38.2217,-50.03682 c -21.0219,-27.52025 -39.4669,-50.80636 -40.9887,-51.74691 -1.5219,-0.94055 -28.599,19.44486 -60.1714,45.30091 -69.6219,57.0165 -85.3963,70.92586 -83.1065,73.28084 2.8859,2.96796 190.13,89.82794 194.2033,90.08826 2.0655,0.13211 4.4902,-2.84897 5.3883,-6.62439 z M 233.97143,300.36295 c 70.73419,-17.69868 129.84423,-32.94372 131.35572,-33.87786 4.03557,-2.49412 0.6444,-4.48187 -107.78646,-63.17981 -54.67465,-29.59756 -102.7255,-53.78382 -106.77966,-53.74723 -4.60781,0.0416 -18.80852,9.3155 -37.87967,24.73769 -16.779665,13.56915 -33.577646,27.1068 -37.328856,30.08369 l -6.820373,5.41251 12.27762,49.93454 c 17.267424,70.22865 18.026588,72.81589 21.366039,72.81589 1.64344,0 60.86148,-14.48072 131.59564,-32.17942 z m 364.28408,-89.09176 c -0.97478,-6.29238 -3.98661,-29.28814 -6.69295,-51.1017 -2.70635,-21.81356 -5.11844,-39.78357 -5.36025,-39.93336 -3.03325,-1.87919 -158.34554,-69.998417 -164.57839,-72.183303 -4.70005,-1.647576 -9.27177,-2.269391 -10.15933,-1.381811 -1.742,1.741991 52.84364,132.855534 57.4132,137.905254 2.94218,3.25136 116.09027,37.36236 125.54292,37.8477 4.79035,0.24596 5.34896,-1.37863 3.8348,-11.15278 z M 983.89831,179.07299 1080,144.91525 1110.2707,99.931744 c 16.6489,-24.740933 29.4855,-45.768749 28.5258,-46.728482 -3.0523,-3.052266 -113.4291,11.306673 -120.318,15.652184 -6.9412,4.378506 -132.9926,137.151674 -134.74968,141.935284 -0.55934,1.52272 0.12722,2.69466 1.52543,2.60429 1.39829,-0.0904 45.78812,-15.53528 98.64406,-34.32203 z"
       id="path1444" />
    <path
       style="fill:#00112b;fill-opacity:1;stroke-width:3.05085"
       d="M -4.5762712,361.52542 V 0 H 636.10169 1276.7797 V 361.52542 723.05085 H 636.10169 -4.5762712 Z M 705.18786,666.20535 c 58.80387,-42.16683 113.96468,-84.286 113.96468,-87.02014 0,-6.95249 -139.55058,-219.91241 -145.12503,-221.46676 -4.60214,-1.28321 -169.0722,229.2387 -165.76117,232.33156 1.35085,1.26186 67.58219,37.93002 129.36078,71.61901 21.81356,11.89534 40.5464,21.64878 41.62854,21.67435 1.08213,0.0244 12.75162,-7.68655 25.9322,-17.13802 z M 187.35908,626.38038 C 199.85344,619.0643 380.768,502.90877 461.19957,450.56215 c 17.06653,-11.10728 31.80939,-21.45603 32.76189,-22.9972 0.95248,-1.54116 -30.17206,3.81188 -69.16567,11.89568 -103.6915,21.49637 -258.34049,54.55861 -271.09179,57.95643 -9.56914,2.54987 -14.49053,7.92525 -36.90083,40.30499 -29.623373,42.80159 -37.830443,56.33543 -35.547079,58.61877 1.542994,1.543 88.245989,37.94257 90.848749,38.14005 0.69156,0.0525 7.55597,-3.59274 15.25424,-8.10049 z m 829.90222,-65.78716 c 3.5276,-15.52119 6.9362,-30.58676 7.5747,-33.47902 1.3179,-5.96944 -11.653,-18.66518 -95.41183,-93.38815 -30.72264,-27.4083 -56.50962,-49.18296 -57.3044,-48.38818 -1.7892,1.78917 66.21629,189.43886 70.03937,193.26197 2.02851,2.02851 46.55499,9.49714 59.02736,9.90095 l 9.6611,0.31277 z m 229.0099,-134.54375 c 0,-0.58805 5.4974,-24.67488 12.2164,-53.52632 l 12.2164,-52.45716 -38.544,-50.26679 c -21.1992,-27.64673 -39.4988,-50.85693 -40.6659,-51.57821 -2.3975,-1.48174 -19.2536,11.72836 -92.4263,72.43448 -28.1059,23.31746 -51.1017,43.42014 -51.1017,44.67263 0,2.18542 191.3188,91.76907 196.017,91.78353 1.2584,0.003 2.2881,-0.4741 2.2881,-1.06216 z M 234.28417,300.248 c 70.76677,-17.76191 129.8198,-33.00694 131.22896,-33.87786 1.40915,-0.87091 0.0589,-3.3042 -3.00094,-5.40731 -14.83743,-10.1987 -201.12639,-108.93991 -208.19885,-110.3544 -6.18352,-1.2367 -11.80498,1.15798 -23.64139,10.07097 -35.370669,26.63467 -61.77976,50.00772 -60.576506,53.61252 0.705643,2.11402 4.827234,18.94537 9.159093,37.403 12.958084,55.21313 20.398012,80.84745 23.464623,80.84745 1.59399,0 60.79825,-14.53246 131.56501,-32.29437 z m 363.6851,-88.97681 c -0.8769,-6.29238 -3.718,-28.51762 -6.3136,-49.38943 -2.59557,-20.87181 -5.31656,-38.91522 -6.0466,-40.09648 -1.233,-1.99502 -130.04963,-59.82604 -159.37972,-71.552012 -7.20097,-2.878899 -13.73876,-4.588273 -14.52841,-3.79861 -1.41327,1.413253 20.56284,55.972332 44.86875,111.393672 l 12.40301,28.28086 26.36112,8.04758 c 59.13781,18.05372 93.77152,27.9488 98.85478,28.24349 4.49451,0.26054 5.11383,-1.5626 3.78067,-11.12907 z M 983.89831,179.03085 1080,144.91525 1110.1653,99.826328 c 16.5909,-24.798911 29.3954,-45.858868 28.4544,-46.799908 -1.5786,-1.578591 -93.5843,8.912437 -112.8192,12.86431 -5.9729,1.227133 -27.35697,21.790531 -73.22036,70.41018 -62.91833,66.69952 -72.32699,77.48383 -67.22326,77.05197 1.34185,-0.11355 45.68549,-15.55846 98.54143,-34.32203 z"
       id="path1446" />
    <path
       style="fill:#00112b;fill-opacity:1;stroke-width:3.05085"
       d="M -4.5762712,361.52542 V 0 H 636.10169 1276.7797 V 361.52542 723.05085 H 636.10169 -4.5762712 Z M 721.92991,653.92371 c 22.43007,-16.20638 51.71229,-37.82926 65.07158,-48.05085 13.35933,-10.22159 26.21975,-20.05712 28.57875,-21.85673 3.65892,-2.79122 3.5518,-4.69778 -0.72918,-12.97626 -10.2794,-19.87819 -134.26966,-209.58718 -138.82051,-212.39975 -1.33747,-0.8266 -5.26305,1.54375 -8.72354,5.26747 -7.40065,7.96356 -146.1063,201.9059 -154.17491,215.57187 l -5.51193,9.33578 11.40236,6.86355 c 19.01791,11.44769 158.12685,87.54276 160.19551,87.62983 1.06145,0.0445 20.28179,-13.17854 42.71187,-29.38491 z M 179.43785,631.03796 c 8.25796,-4.38471 192.61425,-122.5804 262.82325,-168.50288 28.46392,-18.6178 49.62572,-34.2601 47.02619,-34.76072 -3.97404,-0.76533 -102.13109,19.42353 -302.8426,62.28842 -32.00409,6.83494 -40.66885,9.84866 -46.57976,16.20098 -9.16621,9.85073 -59.017472,84.01924 -59.017472,87.80598 0,2.08971 85.192672,39.95231 90.963282,40.42724 0.5298,0.0436 3.962,-1.51295 7.62711,-3.45902 z M 1017.1843,561.1255 c 3.5063,-15.22843 6.375,-30.86554 6.375,-34.74918 0,-5.03436 -8.5378,-14.88466 -29.74574,-34.31819 -57.49575,-52.68542 -120.49389,-107.92016 -121.70609,-106.708 -2.55371,2.55374 65.10875,185.0516 70.8405,191.06961 4.0428,4.2447 38.54303,11.39439 58.21943,12.06512 l 9.6419,0.3287 z m 229.0869,-135.05476 c 0,-0.57634 5.457,-24.66748 12.1268,-53.53585 l 12.1268,-52.48796 -38.5056,-50.19296 c -21.1781,-27.60612 -39.894,-50.19295 -41.5908,-50.19295 -4.2495,0 -35.6826,24.51444 -35.6826,27.82864 0,1.4739 -1.1334,2.33661 -2.5187,1.91712 -2.9587,-0.89599 -104.261,82.70695 -104.261,86.04473 0,1.24685 5.1483,4.40649 11.4407,7.02146 6.2924,2.61495 49.8813,22.72104 96.8644,44.68018 79.5223,37.1675 90,41.69822 90,38.91759 z M 234.16533,300.25797 c 70.88705,-17.75643 129.91564,-33.27045 131.17469,-34.47562 1.25905,-1.20516 -28.25789,-18.8412 -65.59322,-39.19119 -117.98383,-64.30828 -145.26787,-77.87443 -152.65334,-75.90217 -3.71496,0.99206 -22.19939,14.25381 -41.07651,29.47055 -24.919134,20.08717 -34.31579,29.49687 -34.299242,34.34685 0.01254,3.67403 6.189486,31.39192 13.726553,61.5953 7.53707,30.20339 13.704779,55.25848 13.706021,55.67797 0.0061,2.03958 15.104848,-1.48552 135.015048,-31.52169 z m 363.94672,-87.46136 c -2.38024,-14.25219 -10.82391,-82.11717 -10.82391,-86.996 0,-2.26262 -10.63983,-8.99959 -23.64407,-14.97104 C 516.95811,89.391704 416.25726,45.762712 413.46214,45.762712 c -1.56887,0 -0.99104,5.148305 1.28404,11.440678 4.2278,11.693117 43.56039,105.29742 50.6628,120.56806 4.20571,9.04262 10.4594,11.40623 91.37068,34.53407 44.44243,12.7035 43.36987,12.69076 41.33239,0.49109 z M 985.0802,178.19472 c 82.0383,-28.97285 95.132,-34.46387 101.1812,-42.43201 11.9419,-15.72982 53.3749,-81.719638 52.106,-82.988534 -1.2416,-1.241555 -97.5031,9.948053 -112.5185,13.079346 -5.8874,1.227743 -27.21183,21.737376 -71.52203,68.789128 -65.69369,69.75824 -75.61568,81.22599 -67.84222,78.41127 2.39956,-0.86885 46.76754,-16.5555 98.59555,-34.8592 z"
       id="path1448" />
    <path
       style="fill:#00112b;fill-opacity:1;stroke-width:3.05085"
       d="m 1206.6102,405.25791 c -48.7487,-20.93951 -146.3203,-67.00167 -148.1302,-69.93008 -2.3575,-3.81458 122.4728,-109.56512 129.3331,-109.56512 3.7208,0 45.8086,51.60355 66.0068,80.93054 l 11.7677,17.08617 -10.0519,43.27978 c -5.5286,23.80388 -10.9045,45.52736 -11.9464,48.27441 -1.6362,4.31384 -6.6766,2.94048 -36.9791,-10.0757 z"
       id="path1450" />
    <path
       style="fill:#00112b;fill-opacity:1;stroke-width:3.05085"
       d="M -4.5762712,361.52542 V 0 H 636.10169 1276.7797 V 361.52542 723.05085 H 636.10169 -4.5762712 Z M 715.92132,658.12945 c 62.84447,-45.89783 103.23122,-76.65721 103.23122,-78.62302 0,-3.22166 -40.54924,-67.11114 -93.51942,-147.3494 -41.17497,-62.37107 -50.80793,-75.17691 -54.34335,-72.24279 -4.94371,4.1029 -61.17821,81.49555 -121.82622,167.66311 -33.76688,47.97537 -40.9702,59.99882 -37.79421,63.08444 4.11529,3.99817 164.13364,92.39217 167.64181,92.60518 1.11268,0.0674 17.58725,-11.24432 36.61017,-25.13752 z m -498.99308,-50.5612 c 97.49619,-62.11239 253.6281,-163.23505 263.0179,-170.35002 5.56359,-4.21572 9.52447,-8.25608 8.80197,-8.97858 -0.7225,-0.72253 -38.2237,6.3644 -83.33597,15.74872 -198.75348,41.34493 -253.13344,53.64933 -260.49689,58.94191 -10.98926,7.89874 -65.160398,89.06187 -61.731548,92.49071 2.645033,2.64503 85.585378,38.83174 89.507248,39.05183 1.01392,0.0567 20.9207,-12.05015 44.23729,-26.90457 z m 800.17446,-46.97503 c 3.5743,-15.52119 6.4894,-31.24614 6.4777,-34.94431 -0.015,-4.8744 -17.8541,-22.80268 -64.85159,-65.17678 -66.60772,-60.0552 -83.98272,-74.74378 -85.96919,-72.67723 -0.62817,0.65349 14.24423,43.06103 33.04974,94.239 38.2565,104.11243 34.33653,98.25391 69.05999,103.21239 38.16395,5.44979 34.85625,7.38065 42.23335,-24.65307 z m 229.1685,-134.61269 c 0,-0.62598 5.4105,-24.81429 12.0233,-53.75185 l 12.0233,-52.61372 -38.6514,-49.97698 c -21.2584,-27.48733 -40.088,-49.97696 -41.8438,-49.97696 -6.8657,0 -142.3091,112.73168 -139.9771,116.50503 0.8738,1.41376 5.9567,4.49493 11.2953,6.84701 5.3387,2.35212 48.1473,22.19901 95.1304,44.10418 80.6579,37.6056 90,41.63965 90,38.86329 z M 231.63793,300.6195 c 70.3092,-17.55758 129.10956,-33.19751 130.66744,-34.75539 2.98681,-2.98681 -15.41431,-13.80175 -113.6613,-66.80237 -72.52662,-39.12544 -93.35898,-49.57021 -98.86894,-49.57021 -7.90957,0 -78.080215,57.8236 -78.080215,64.34143 0,8.87625 27.90688,118.70941 30.162195,118.70941 1.07023,0 59.4716,-14.36528 129.78082,-31.92287 z m 365.76074,-80.19577 c 0.72498,-1.25848 -1.19904,-21.50848 -4.27558,-45 -3.07653,-23.49153 -5.64797,-45.20051 -5.71432,-48.24218 -0.13333,-6.10848 -2.41682,-7.24166 -106.59991,-52.89785 -35.91104,-15.737315 -66.03452,-27.871585 -66.94108,-26.965041 -2.28567,2.285662 2.77285,15.713863 30.71337,81.530751 l 24.26317,57.1545 21.84901,6.55191 c 39.63027,11.88402 101.13322,29.71053 103.27915,29.93527 1.15945,0.12142 2.70125,-0.80889 3.42619,-2.06736 z m 369.8781,-35.89712 c 125.88183,-44.45298 110.30113,-35.40856 140.79433,-81.72968 14.3825,-21.848023 26.8349,-42.342673 27.672,-45.543671 1.332,-5.093628 0.2331,-5.613645 -8.8055,-4.166603 -5.6801,0.909366 -29.5478,3.900514 -53.0393,6.647 -23.4915,2.746483 -47.0683,7.010954 -52.3929,9.476603 -11.0809,5.131282 -143.77576,144.349061 -137.58565,144.349061 0.62826,0 38.13891,-13.06472 83.35702,-29.03271 z"
       id="path1452" />
    <path
       style="fill:#00112b;fill-opacity:1;stroke-width:3.05085"
       d="M -4.5762712,361.52542 V 0 H 636.10169 1276.7797 V 361.52542 723.05085 H 636.10169 -4.5762712 Z M 712.90626,660.16574 c 30.08465,-21.72121 99.80814,-73.62601 104.36638,-77.69431 3.40157,-3.03596 -3.82241,-15.30797 -59.60502,-101.25626 -62.00637,-95.53771 -79.7875,-121.21465 -83.94062,-121.21493 -6.67952,-4.5e-4 -162.71005,218.23725 -162.71005,227.58026 0,2.12778 24.36864,17.27262 54.15254,33.65521 29.7839,16.38259 67.19492,37.01938 83.13559,45.85954 15.94068,8.84017 30.59595,15.51915 32.56728,14.84213 1.97131,-0.67698 16.38656,-10.47423 32.0339,-21.77164 z m -472.4549,-67.88325 c 140.62939,-89.70663 238.90521,-153.8236 244.63339,-159.6034 l 6.10169,-6.15664 -9.15254,1.75439 c -5.0339,0.96492 -55.83051,11.52262 -112.88136,23.46156 -180.89557,37.85574 -220.63218,47.15329 -227.29408,53.18222 -11.94313,10.80839 -61.5592,87.61592 -58.545106,90.63003 5.164777,5.16478 87.398266,38.70437 91.544786,37.33728 2.20588,-0.72726 31.72283,-18.9997 65.59322,-40.60544 z m 770.32804,-8.80791 c 4.8524,-9.63427 13.2936,-55.35504 11.3503,-61.47775 -1.6712,-5.26552 -125.39993,-119.01213 -142.43617,-130.94479 -6.31834,-4.42552 -6.46084,-4.28369 -4.32424,4.30444 1.21518,4.88444 11.76879,35.17869 23.45253,67.32049 44.18994,121.56633 41.9177,117.8964 75.92394,122.62564 29.79354,4.14339 33.11084,3.97511 36.03364,-1.82803 z m 241.6695,-186.1017 c 3.6733,-16.36017 9.2018,-40.49451 12.2855,-53.63185 l 5.6069,-23.88606 -35.9686,-46.28342 c -19.7827,-25.45588 -38.2083,-48.14063 -40.9458,-50.41056 -5.6882,-4.71667 -4.5128,-5.5279 -70.715,48.80249 -52.3078,42.92751 -61.6134,51.15922 -57.9661,51.27631 1.6779,0.054 16.7796,-11.66913 33.5593,-26.05111 49.3239,-42.27594 85.7862,-71.42597 89.3433,-71.42597 6.389,0 76.9279,91.62684 76.9279,99.9259 0,2.34794 -4.895,24.65347 -10.8777,49.56792 l -10.8776,45.29895 -28.0207,-11.71095 c -15.4113,-6.44105 -40.3766,-17.46629 -55.4783,-24.50054 -42.0014,-19.56398 -55.2261,-25.04678 -51.6298,-21.40508 3.1287,3.16812 131.7802,63.72192 136.0404,64.03162 1.1207,0.0815 5.0431,-13.23748 8.7163,-29.59765 z m -187.7031,-57.47037 c -3.356,-2.55707 -5.6365,-6.90144 -5.0678,-9.65416 0.8769,-4.24486 0.2978,-4.39398 -3.8136,-0.98192 -6.5271,5.41706 -6.1122,7.83525 2.017,11.7558 10.0687,4.85595 13.8891,4.23278 6.8644,-1.11972 z M 228.81356,300.7496 c 138.9405,-34.79486 134.40609,-33.53627 133.55756,-37.07079 -1.15072,-4.79332 -194.75038,-109.37069 -208.30332,-112.5199 -5.98526,-1.39076 -12.19101,1.67305 -28.8282,14.2326 -11.66059,8.80268 -28.764063,23.04449 -38.007725,31.64846 l -16.806655,15.64359 13.223779,54.59043 c 14.821432,61.18583 16.713341,66.21707 24.079181,64.03505 2.83425,-0.8396 57.32267,-14.59135 121.08538,-30.55944 z m 368.49402,-85.94844 c -7.4981,-66.24709 -10.91609,-91.61951 -12.57377,-93.33817 -2.14645,-2.22543 -132.14144,-60.159042 -156.78021,-69.87074 -11.81435,-4.656783 -14.56377,-4.931591 -14.56377,-1.455669 0,2.35666 11.78957,32.196795 26.19903,66.311409 14.40949,34.11462 26.83205,63.5336 27.60575,65.3755 1.91169,4.55117 120.84043,41.42985 127.72064,39.60497 1.67797,-0.44505 2.75452,-3.42734 2.39233,-6.6273 z M 1038.8136,158.822 c 19.2966,-6.95389 37.299,-14.31424 40.0053,-16.35634 6.1533,-4.64306 57.6218,-82.411689 57.6218,-87.066245 0,-2.238255 -4.4761,-2.86668 -12.9661,-1.820414 -97.3388,11.995481 -99.3314,12.394886 -110.4245,22.134762 C 999.50745,87.604371 911.13617,179.876 894.88287,199.09639 l -12.27859,14.52012 60.56225,-21.07554 c 33.30928,-11.59155 76.35037,-26.76509 95.64707,-33.71897 z"
       id="path1454" />
    <path
       style="fill:#00112b;fill-opacity:1;stroke-width:3.05085"
       d="M -4.5762712,361.52542 V 0 H 636.10169 1276.7797 V 361.52542 723.05085 H 636.10169 -4.5762712 Z M 759.66102,625.42263 c 28.52542,-21.19375 53.57093,-40.63262 55.65664,-43.1975 3.16565,-3.89285 -0.72998,-11.81059 -23.57695,-47.91945 -45.63943,-72.13152 -108.57286,-166.41027 -114.17388,-171.0406 -6.64563,-5.49391 -4.13683,-8.51147 -74.64762,89.78577 -67.76521,94.46973 -91.90226,129.7641 -91.90226,134.384 0,3.10091 110.57815,66.05936 154.01981,87.69228 l 15.20624,7.57235 13.77681,-9.37137 c 7.57723,-5.15426 37.11578,-26.7117 65.64121,-47.90548 z M 306.55779,549.61212 C 436.56986,466.08135 486.12103,433.42914 488.3544,429.81544 c 2.00767,-3.24845 5.94375,-3.99713 -139.80957,26.5928 -157.21297,32.99504 -191.33698,40.64898 -200.44796,44.95998 -10.92784,5.1707 -64.081965,81.7527 -64.169936,92.45306 -0.01586,1.91526 5.119676,5.61435 11.412049,8.22017 6.292377,2.60582 26.471327,10.93595 44.842127,18.51136 l 33.40145,13.77347 10.83584,-6.60166 c 5.95971,-3.63094 60.92243,-38.78155 122.13939,-78.1125 z M 1016.51,561.35593 c 3.6737,-14.26271 6.7627,-29.02652 6.8644,-32.80851 0.1995,-7.41874 -19.7213,-27.52328 -88.28965,-89.1039 -47.34003,-42.51567 -61.01695,-53.48892 -61.01695,-48.95497 0,5.72056 55.06419,155.78585 62.89785,171.41419 3.9356,7.8516 8.89783,15.36473 11.02717,16.69588 5.05516,3.16013 44.39554,9.82709 54.21058,9.18696 6.9199,-0.45132 8.2465,-2.90197 14.3066,-26.42965 z m 229.7612,-135.96516 c 0,-0.95034 4.2365,-20.16031 9.4145,-42.68877 5.1779,-22.5285 8.9052,-42.48855 8.2828,-44.35569 -0.6223,-1.86712 -5.0273,14.25383 -9.7887,35.82436 -4.7614,21.57053 -9.5183,40.81445 -10.571,42.76425 -1.7751,3.28802 -44.5374,-13.96135 -117.8461,-47.53657 -11.7458,-5.37956 -19.9619,-8.36954 -18.2582,-6.64444 3.1226,3.16159 132.222,63.88889 136.4786,64.19837 1.2584,0.0915 2.2881,-0.61117 2.2881,-1.56151 z m -181.5254,-85.48826 c -3.356,-2.55707 -5.6365,-6.90144 -5.0678,-9.65416 0.8769,-4.24486 0.2978,-4.39398 -3.8136,-0.98192 -6.5271,5.41706 -6.1122,7.83525 2.017,11.7558 10.0687,4.85595 13.8891,4.23278 6.8644,-1.11972 z M 236.40136,298.85558 c 67.93599,-17.00328 124.72446,-31.65946 126.19659,-32.56928 1.47209,-0.90981 -3.56489,-5.53899 -11.19335,-10.28705 -20.37218,-12.67998 -188.63393,-102.58183 -196.01064,-104.72802 -4.15973,-1.21025 -10.96249,1.25445 -20.01831,7.25277 -18.19012,12.04864 -60.598101,48.35175 -62.611294,53.59805 -1.562449,4.07167 19.70953,95.32213 26.1639,112.23533 2.333314,6.11429 4.819994,8.1356 8.616484,7.00398 2.93514,-0.87489 60.92062,-15.50249 128.85662,-32.50578 z m 846.62924,10.75757 c 8.3786,-7.52452 16.2727,-13.68095 17.5423,-13.68095 1.2697,0 2.3085,-1.46636 2.3085,-3.25859 0,-3.59271 -10.2913,3.43902 -28.9831,19.80331 -6.7119,5.87608 -10.8305,10.71381 -9.1525,10.75051 1.6779,0.0366 9.9061,-6.08973 18.2848,-13.61428 z m 186.1219,10.72583 c -2.416,-3.90929 -4.5762,-3.90929 -4.5762,0 0,1.67797 1.4539,3.05085 3.2309,3.05085 1.777,0 2.3824,-1.37288 1.3453,-3.05085 z m -25.9322,-32.60819 c 0,-2.96977 -40.9203,-56.35026 -48.3539,-63.07753 -6.0131,-5.44184 -6.4828,-5.32994 -19.4363,4.63083 -35.9444,27.63996 -68.8984,55.99733 -67.5708,58.14554 1.8193,2.94358 135.361,3.24069 135.361,0.30116 z M 596.44068,212.92651 c 0,-25.34746 -9.89155,-86.51821 -14.7575,-91.26254 C 578.89303,118.94357 548.4661,104.3231 514.0678,89.17405 425.2212,50.045916 415.03018,45.936162 413.98032,48.811585 c -0.84999,2.328127 16.07476,45.204325 42.61973,107.970095 5.59879,13.2384 12.92537,25.86326 16.28131,28.05526 5.09482,3.32778 114.15151,37.2516 121.27118,37.72332 1.25848,0.0834 2.28814,-4.25181 2.28814,-9.63375 z M 973.85806,181.7079 c 98.35214,-34.65581 101.34674,-35.88272 109.62904,-44.91608 9.0102,-9.82723 52.9536,-77.288869 52.9536,-81.294019 0,-1.908015 -4.0938,-2.695259 -9.9153,-1.906721 -5.4534,0.738683 -27.0762,3.428939 -48.0508,5.978346 -20.9746,2.54941 -42.6283,5.449488 -48.1193,6.444619 -7.9587,1.442346 -21.7877,13.959061 -68.18135,61.711205 -60.46624,62.23678 -78.64242,82.78322 -73.23327,82.78322 1.75021,0 39.96305,-12.96025 84.91738,-28.80057 z"
       id="path1456" />
    <path
       style="fill:#00112b;fill-opacity:1;stroke-width:3.05085"
       d="M -4.5762712,361.52542 V 0 H 636.10169 1276.7797 V 361.52542 723.05085 H 636.10169 -4.5762712 Z M 768.7807,618.49541 c 25.15143,-18.84198 46.16091,-36.51715 46.68773,-39.27823 1.13565,-5.95193 -7.85682,-20.90377 -69.30372,-115.23188 C 697.03975,388.5728 677.01801,360 673.29934,360 c -1.24899,0 -9.72885,9.95339 -18.84417,22.11864 -22.60785,30.1724 -118.25747,164.35922 -132.90413,186.4512 l -11.86206,17.89185 7.02006,5.68449 c 6.81925,5.52191 117.73537,67.51556 148.33406,82.90745 l 15.21259,7.65229 21.39758,-14.97621 c 11.76868,-8.23689 41.976,-30.39233 67.12743,-49.2343 z M 273.05085,570.98309 c 124.31977,-79.38646 217.64764,-140.79307 216.19299,-142.24771 -1.39841,-1.39842 5.0131,-2.67306 -153.65062,30.54609 -68.79661,14.40381 -139.93426,29.67059 -158.08366,33.92619 l -32.99891,7.7374 -17.04718,23.05123 c -20.3896,27.57085 -43.565165,64.64133 -43.565165,69.68471 0,1.99242 5.148305,5.73895 11.440678,8.32561 6.292377,2.58663 26.471277,10.88585 44.842007,18.44265 18.37073,7.5568 34.84531,12.88763 36.61017,11.84632 1.76486,-1.04132 45.08172,-28.63193 96.25969,-61.31249 z m 734.53365,15.28954 c 2.1206,-1.34612 6.7726,-15.99334 10.3378,-32.54934 l 6.4821,-30.10186 -28.64284,-27.76866 C 951.683,453.11964 875.82301,386.76829 874.74429,390.00441 c -1.10801,3.32402 50.70017,146.29421 61.79263,170.52331 8.91323,19.46904 16.33802,22.69434 64.14108,27.86256 1.6779,0.18153 4.7859,-0.77152 6.9065,-2.11765 z m 246.428,-197.50192 c 4.5038,-19.36742 7.5542,-35.84807 6.7787,-36.62362 -0.7756,-0.77556 -3.8046,9.67195 -6.731,23.21664 -2.9265,13.5447 -6.6042,29.27401 -8.1725,34.95402 l -2.8515,10.3273 -28.1282,-11.7435 c -15.4706,-6.45892 -45.1374,-19.45514 -65.9263,-28.88049 -20.7889,-9.42538 -38.2538,-16.68118 -38.8109,-16.12403 -1.6482,1.64813 131.332,62.70822 133.5885,61.33945 1.1355,-0.68875 5.7494,-17.09835 10.2532,-36.46577 z m 9.3562,-49.30038 c -1.0138,-1.01377 -1.7349,0.78815 -1.6024,4.00424 0.1464,3.55408 0.8693,4.27698 1.8432,1.84323 0.8813,-2.20232 0.7729,-4.83367 -0.2407,-5.84747 z m -198.6229,0.43218 c -3.356,-2.55707 -5.6365,-6.90144 -5.0678,-9.65416 0.8769,-4.24486 0.2978,-4.39398 -3.8136,-0.98192 -6.5271,5.41706 -6.1122,7.83525 2.017,11.7558 10.0687,4.85595 13.8891,4.23278 6.8644,-1.11972 z M 229.6854,300.43449 C 364.42263,266.81702 364.30551,266.853 358.24024,260.94012 353.48049,256.29994 244.39768,196.51269 187.45359,167.33357 155.44871,150.93373 150.8353,149.36568 144.44561,152.71558 c -9.38839,4.92201 -56.993739,42.82003 -66.254004,52.74397 l -7.232119,7.75044 12.800062,52.80178 c 15.455728,63.75671 16.428001,66.42718 23.596851,64.81121 3.03872,-0.68498 58.08678,-14.35979 122.329,-30.38849 z m 856.4163,5.94031 c 10.0678,-9.35223 14.1864,-14.16952 9.1525,-10.7051 -14.2519,9.80845 -33.8966,27.62494 -30.5084,27.66924 1.6779,0.0214 11.2881,-7.61192 21.3559,-16.96414 z m 183.0508,13.96418 c -2.416,-3.90929 -4.5762,-3.90929 -4.5762,0 0,1.67797 1.4539,3.05085 3.2309,3.05085 1.777,0 2.3824,-1.37288 1.3453,-3.05085 z m -43.0145,-57.06812 c -9.9013,-12.98313 -21.9561,-28.14771 -26.7884,-33.69906 -8.6465,-9.93302 -8.913,-10.01091 -16.7797,-4.90313 -12.7922,8.3059 -65.5266,51.47853 -70.539,57.74889 -5.2049,6.51125 0.2639,2.35237 43.8577,-33.35258 17.0515,-13.96584 31.0814,-23.2967 33.5845,-22.33614 2.3646,0.90735 15.0668,15.37698 28.2272,32.15474 13.1604,16.77775 24.4933,29.9398 25.1841,29.249 0.6908,-0.69081 -6.8451,-11.87858 -16.7464,-24.86172 z M 596.44068,212.13879 c 0,-11.4594 -8.40179,-76.01864 -11.04077,-84.83719 -0.89049,-2.97565 -9.41044,-9.33495 -18.9332,-14.13179 C 541.09233,100.38818 430.71761,52.501079 421.024,50.068144 c -7.67832,-1.927138 -8.13478,-1.532831 -6.01322,5.194394 5.60834,17.783457 51.10904,123.630332 54.76262,127.392552 3.22856,3.32455 115.49599,39.35006 124.37914,39.91202 1.25848,0.0796 2.28814,-4.61313 2.28814,-10.42832 z m 380.39528,-31.65128 c 46.67244,-16.51153 89.40444,-32.37817 94.96004,-35.25919 10.8624,-5.633 19.5534,-16.78093 47.3204,-60.697507 l 17.7605,-28.090135 -9.6135,-0.97412 c -11.7633,-1.191957 -86.2238,7.796669 -99.8202,12.049968 -13.8948,4.346637 -148.28473,142.991944 -138.6032,142.991944 1.72538,0 41.32355,-13.50943 87.99596,-30.02096 z"
       id="path1458" />
    <path
       style="fill:#00112b;fill-opacity:1;stroke-width:3.05085"
       d="M -4.5762712,361.52542 V 0 H 636.10169 1276.7797 V 361.52542 723.05085 H 636.10169 -4.5762712 Z M 768.80157,618.31953 c 25.1629,-18.91538 46.13818,-36.4036 46.61176,-38.86268 0.47359,-2.45907 -4.87757,-14.05894 -11.89144,-25.77749 -21.14103,-35.32174 -123.61247,-189.59113 -127.54983,-192.02455 -4.31335,-2.6658 -1.73495,-5.78087 -51.65985,62.41299 -62.07172,84.78561 -113.53954,159.42847 -112.3862,162.99174 1.28862,3.98117 50.247,32.69214 117.76842,69.06362 l 50.03344,26.9513 21.66147,-15.18165 c 11.91384,-8.3499 42.24933,-30.65788 67.41223,-49.57328 z m -578.53016,5.08435 c 15.74022,-9.22435 179.65321,-114.45952 249.81334,-160.38475 25.58898,-16.74998 46.52542,-31.51602 46.52542,-32.81346 0,-3.71895 -324.47316,64.4699 -338.64407,71.16691 -7.86357,3.71624 -64.067795,84.10537 -64.067795,91.63644 0,4.26976 76.029415,37.84461 86.681115,38.27868 3.20851,0.13088 12.0699,-3.41695 19.69199,-7.88382 z m 819.21979,-41.45473 c 2.4078,-3.77542 6.683,-18.35991 9.5005,-32.40997 l 5.1228,-25.5456 -14.7691,-15.1143 C 993.9751,493.14972 900.27998,408.25474 885.34782,396.52789 c -4.70279,-3.69327 -9.19925,-6.06628 -9.9922,-5.27336 -1.5411,1.5411 41.95946,123.25512 57.28186,160.27392 6.66317,16.09816 11.52329,23.41227 17.66886,26.59027 6.89772,3.56696 29.64688,8.16376 51.06406,10.31827 2.0587,0.20716 5.7131,-2.71241 8.1208,-6.48784 z m 239.8703,-173.30028 c 2.0345,-8.48038 2.8578,-16.26004 1.8298,-17.28811 -1.0281,-1.02808 -1.8769,0.0757 -1.8863,2.45279 -0.01,2.37713 -1.4354,9.42934 -3.1691,15.67159 l -3.152,11.34955 -15.136,-5.96605 c -17.9178,-7.06253 -19.7835,-5.60352 -3.6954,2.88973 17.9474,9.47477 21.0168,8.36561 25.209,-9.1095 z m -58.0056,-7.6021 c 0,-1.86226 -51.3412,-25.93827 -54.4563,-25.53678 -1.626,0.20959 51.2111,26.90997 53.6936,27.13326 0.4195,0.0378 0.7627,-0.68067 0.7627,-1.59648 z m 69.7908,-45.62304 c -0.4418,-5.16298 -8.3074,20.96283 -8.2666,27.45763 0.021,3.35593 1.9485,-0.76272 4.283,-9.15255 2.3345,-8.38983 4.1272,-16.62712 3.9836,-18.30508 z m -128.0111,18.69309 c -3.1147,-2.78698 -21.1017,-11.06911 -21.1017,-9.71634 0,1.89644 15.8174,10.56744 19.5763,10.7316 1.5381,0.0671 2.2245,-0.38968 1.5254,-1.01526 z m 130.2331,-34.64649 c -1.0138,-1.01377 -1.7349,0.78815 -1.6024,4.00424 0.1464,3.55408 0.8693,4.27698 1.8432,1.84323 0.8813,-2.20232 0.7729,-4.83367 -0.2407,-5.84747 z m -199.3417,0.61566 c -4.3948,-3.07821 -5.9845,-6.44348 -4.6839,-9.91525 1.7209,-4.59373 1.3207,-4.72824 -3.1787,-1.06838 -6.8393,5.56334 -6.4941,7.95981 1.717,11.91987 10.2056,4.922 13.7405,4.38349 6.1456,-0.93624 z M 260.82798,292.66016 c 52.84524,-13.44845 97.17884,-25.54833 98.51914,-26.88863 3.49102,-3.49103 -0.0275,-5.79295 -54.26237,-35.49246 -88.69134,-48.56885 -146.84442,-77.7367 -154.98666,-77.7367 -5.46776,0 -17.55224,7.67036 -37.87736,24.04183 -46.561669,37.50448 -43.496776,27.80843 -28.290897,89.50057 7.148123,29.00084 14.097218,55.67914 15.442431,59.28512 l 2.445846,6.55633 31.46383,-7.40718 c 17.3051,-4.07395 74.70082,-18.41043 127.54604,-31.85888 z m 822.22282,16.65944 c 8.3899,-7.60968 12.5085,-12.37921 9.1526,-10.59896 -8.7323,4.63229 -31.0958,24.59225 -27.4576,24.50658 1.6779,-0.0397 9.9152,-6.29793 18.305,-13.90762 z m 186.1017,11.01938 c -2.416,-3.90929 -4.5762,-3.90929 -4.5762,0 0,1.67797 1.4539,3.05085 3.2309,3.05085 1.777,0 2.3824,-1.37288 1.3453,-3.05085 z m -106.9306,-78.96456 c -1.304,-1.30394 -53.2388,41.76776 -53.2388,44.15312 0,0.82114 12.244,-8.51212 27.2089,-20.74056 14.9649,-12.22844 26.6784,-22.7641 26.0299,-23.41256 z m 73.1502,33.96456 c -4.7149,-6.29237 -16.7146,-21.37292 -26.6659,-33.51233 l -18.0933,-22.07165 -9.0156,5.29199 c -11.3976,6.6902 -19.7721,15.83532 -9.4791,10.35134 3.682,-1.9617 7.5384,-4.93223 8.5699,-6.60118 4.3854,-7.09568 11.752,-1.32537 35.0746,27.47404 23.9581,29.58413 36.9692,42.23594 19.6094,19.06779 z M 591.98949,171.42723 c -2.70793,-21.29345 -5.702,-41.27394 -6.6535,-44.40109 -1.07741,-3.54097 -13.62048,-11.25211 -33.25174,-20.44222 -46.15856,-21.608532 -130.83348,-57.770361 -135.2725,-57.770361 -5.04866,0 -3.87012,3.472838 21.74196,64.067801 33.30656,78.79916 25.70107,69.96702 72.98649,84.75796 22.36476,6.99573 50.27336,15.31094 62.01912,18.47824 26.21694,7.06954 25.29644,9.30164 18.43017,-44.69033 z m 368.00485,15.0211 c 109.95706,-38.82499 117.02896,-41.87351 127.34086,-54.89323 5.0011,-6.31449 18.1829,-25.79842 29.2929,-43.297649 l 20.2,-31.816773 -9.1585,-0.942004 c -7.9626,-0.819003 -63.2694,5.269079 -94.9577,10.452789 -8.8447,1.446849 -19.5825,10.769461 -62.54241,54.299517 -56.416,57.16479 -86.26451,90.25749 -81.40924,90.25749 1.70106,0 33.75638,-10.82706 71.23409,-24.06014 z"
       id="path1460" />
    <path
       style="fill:#00112b;fill-opacity:1;stroke-width:3.05085"
       d="M -4.5762712,361.52542 V 0 H 636.10169 1276.7797 V 361.52542 723.05085 H 636.10169 -4.5762712 Z M 720.40961,653.95623 c 62.76215,-45.74065 95.69208,-71.77149 95.69208,-75.64378 0,-2.06014 -7.01463,-15.29869 -15.58803,-29.41892 C 778.72585,513.00946 679.90134,364.08322 676.4699,361.96249 c -4.41205,-2.72679 -15.10283,10.26238 -62.4157,75.83412 -64.45123,89.32412 -103.67653,147.51439 -101.64893,150.79512 3.93007,6.35901 159.116,91.68672 166.8179,91.72346 2.74222,0.0122 21.27612,-11.84843 41.18644,-26.35896 z M 258.20073,580.20337 c 106.38231,-67.87086 212.33239,-136.74039 221.70124,-144.10996 6.56981,-5.1678 6.7971,-5.92102 1.78065,-5.90119 -11.72578,0.0464 -303.42496,61.87021 -325.07025,68.89668 -12.66182,4.11025 -16.37078,7.64652 -33.55932,31.99698 -31.182954,44.17591 -40.609883,60.54373 -36.967522,64.18608 5.048478,5.04848 77.913752,35.93822 85.166042,36.1044 3.5782,0.0821 42.70531,-22.94585 86.94916,-51.17299 z m 749.39197,5.05138 c 1.9573,-1.95734 6.5721,-16.59875 10.2549,-32.53647 l 6.6962,-28.97768 -27.18717,-26.29089 C 962.49078,463.73321 879.89272,390.50847 876.72615,390.50847 c -4.16254,0 52.96146,159.24399 63.56032,177.18639 6.28466,10.63913 8.98636,11.89117 35.98472,16.67627 28.18541,4.99552 27.23641,4.96873 31.32151,0.88362 z m 241.7688,-176.60588 c 2.0345,-8.48038 2.8578,-16.26004 1.8298,-17.28811 -1.0281,-1.02808 -1.8769,0.0757 -1.8863,2.45279 -0.01,2.37713 -1.4354,9.42934 -3.1691,15.67159 l -3.152,11.34955 -15.136,-5.96605 c -17.9178,-7.06253 -19.7835,-5.60352 -3.6954,2.88973 17.9474,9.47477 21.0168,8.36561 25.209,-9.1095 z m -58.0056,-7.488 c 0,-1.7514 -51.6956,-26.04706 -54.5792,-25.65088 -1.5407,0.21173 51.4302,26.91863 53.8165,27.13326 0.4195,0.0378 0.7627,-0.62933 0.7627,-1.48238 z m 66.0883,-35.82189 c -0.8463,-2.09745 -1.5388,-0.38135 -1.5388,3.81356 0,4.19492 0.6925,5.91102 1.5388,3.81356 0.8464,-2.09746 0.8464,-5.52966 0,-7.62712 z m -130.4103,5.75222 c -0.6992,-0.61169 -4.7034,-2.74674 -8.8983,-4.74455 -7.1917,-3.42504 -7.289,-3.36152 -1.705,1.11215 4.86,3.89368 14.79,7.29543 10.6033,3.6324 z m -65.339,-32.44713 c -5.7446,-6.34769 -10.678,-7.97263 -10.678,-3.51705 0,1.42154 3.089,4.07438 6.8645,5.89521 9.698,4.6772 10.018,4.47767 3.8135,-2.37816 z M 149.49153,320.2913 c 72.67478,-17.2678 207.42333,-52.45499 209.98793,-54.83461 3.15412,-2.92663 -16.84983,-14.96994 -92.53031,-55.70757 -81.96384,-44.11987 -108.58059,-57.20675 -116.34997,-57.20675 -9.5194,0 -69.360378,45.83375 -75.973126,58.18978 -1.983466,3.70614 1.292403,21.99883 10.904046,60.88899 7.55661,30.57519 14.44341,56.73056 15.304,58.123 0.86058,1.39246 3.23683,1.95553 5.28055,1.25127 2.04372,-0.70429 21.56332,-5.52112 43.37688,-10.70411 z m 1119.66097,0.0477 c -2.416,-3.90929 -4.5762,-3.90929 -4.5762,0 0,1.67797 1.4539,3.05085 3.2309,3.05085 1.777,0 2.3824,-1.37288 1.3453,-3.05085 z m -186.3561,-10.80497 c 6.572,-5.80302 10.6906,-10.49381 9.1526,-10.42396 -1.5381,0.0698 -8.1735,4.87493 -14.7454,10.67797 -6.572,5.80302 -10.6906,10.49382 -9.1526,10.42396 1.5381,-0.0699 8.1735,-4.87492 14.7454,-10.67797 z M 1241.048,282.9661 c -39.5297,-51.63612 -50.1462,-63.2663 -55.1309,-60.39491 -7.2797,4.19335 -21.538,16.43896 -15.9171,13.67018 2.5169,-1.23981 6.9277,-4.27121 9.8016,-6.73645 2.874,-2.46522 7.2225,-3.71586 9.6634,-2.7792 2.4409,0.93667 14.9979,14.83199 27.9043,30.87849 12.9064,16.0465 24.1709,29.17545 25.0322,29.17545 0.8613,0 0.2523,-1.7161 -1.3535,-3.81356 z m -93.9294,-28.18301 c 6.7119,-6.16705 1.5636,-2.7754 -11.4406,7.537 -13.0043,10.3124 -23.6441,19.46344 -23.6441,20.33563 0,1.996 19.0386,-13.12899 35.0847,-27.87263 z M 595.32013,200.59322 c -5.99574,-57.45691 -8.98056,-73.10366 -15.01853,-78.72889 -9.34404,-8.70529 -162.20254,-75.726105 -165.40627,-72.522379 -0.87565,0.875669 4.46388,16.559924 11.86569,34.8539 26.69056,65.967339 39.98252,93.644999 47.64576,99.211999 8.35761,6.07142 103.86766,35.91649 115.60411,36.12407 7.14079,0.12631 7.25587,-0.28425 5.30924,-18.9387 z m 377.96452,-19.06223 c 45.15675,-15.93761 88.31605,-32.06896 95.90955,-35.84745 11.4595,-5.7022 17.6102,-12.57451 36.1843,-40.4293 12.3079,-18.45763 24.4755,-37.544104 27.0391,-42.414391 l 4.6609,-8.855067 -25.4884,2.114018 c -14.0186,1.162708 -39.1982,4.167873 -55.9545,6.678137 -37.2938,5.58699 -36.2126,4.767898 -112.16102,84.969533 -46.4588,49.06058 -58.07774,62.762 -53.22283,62.762 0.51135,0 37.87615,-13.03986 83.0329,-28.97748 z"
       id="path1462" />
    <path
       style="fill:#00112b;fill-opacity:1;stroke-width:3.05085"
       d="M -4.5762712,361.52542 V 0 H 636.10169 1276.7797 V 361.52542 723.05085 H 636.10169 -4.5762712 Z M 707.39634,663.0152 c 21.71123,-15.16182 85.59842,-63.08917 103.81817,-77.88307 l 6.41261,-5.20682 -7.22792,-13.74703 C 802.40992,550.98317 717.29472,419.60483 691.31468,382.36711 l -16.48193,-23.62394 -10.50367,12.06909 c -10.29118,11.82497 -109.74716,149.85946 -133.99233,185.9674 -21.95921,32.70344 -21.94393,29.9931 -0.24377,43.21593 33.71422,20.54352 144.00543,80.25446 148.32034,80.29967 2.2968,0.0244 15.33917,-7.75199 28.98305,-17.28006 z M 216.49208,606.53288 c 62.23064,-39.09847 255.04266,-163.85781 263.41239,-170.44142 5.27031,-4.14561 6.10987,-5.92197 2.799,-5.92197 -8.70053,0 -271.59337,55.05004 -315.18896,66.00091 -13.3709,3.35864 -21.62784,7.57302 -28.16467,14.37538 -10.02759,10.43493 -55.451535,77.27924 -55.451535,81.60059 0,1.45467 5.721993,5.56401 12.715539,9.13185 18.312376,9.34228 70.390966,30.13051 75.640946,30.1936 2.452,0.0305 22.35878,-11.19304 44.23729,-24.93894 z m 791.10062,-21.27813 c 1.9573,-1.95734 6.5728,-16.60192 10.2566,-32.54355 l 6.6977,-28.98476 -25.6633,-24.74957 c -33.10429,-31.92553 -119.48263,-108.4684 -122.40619,-108.4684 -5.5617,0 58.98075,172.18059 68.23507,182.03135 5.91785,6.29927 20.90364,10.83838 46.81284,14.1793 5.0339,0.64913 9.90768,1.38591 10.83048,1.63733 0.9229,0.25139 3.2794,-1.14434 5.2368,-3.1017 z m 238.5712,-167.08809 c 1.737,-3.24561 3.0343,-8.39391 2.883,-11.44067 -0.1513,-3.04676 -1.5762,-1.02875 -3.1663,4.48444 -1.5901,5.51318 -4.1172,9.26621 -5.6157,8.34007 -1.4986,-0.92618 -3.587,-0.28861 -4.6409,1.41669 -1.054,1.70533 0.1757,3.10061 2.7327,3.10061 2.5569,0 6.0702,-2.65552 7.8072,-5.90114 z m -54.808,-17.05725 c 0,-1.79878 -45.4538,-22.95278 -48.4317,-22.53988 -1.4612,0.20258 44.1455,23.12771 47.669,23.96179 0.4195,0.0992 0.7627,-0.54055 0.7627,-1.42191 z m 59.8094,-9.77467 c -1.0138,-1.01377 -1.7349,0.78815 -1.6024,4.00423 0.1464,3.55409 0.8693,4.27699 1.8432,1.84323 0.8813,-2.20234 0.7729,-4.8337 -0.2407,-5.84746 z m -189.4704,-52.69067 c -5.7446,-6.34769 -10.678,-7.97263 -10.678,-3.51705 0,1.42154 3.089,4.07438 6.8645,5.89521 9.698,4.6772 10.018,4.47767 3.8135,-2.37816 z m -834.051,-38.14528 c 63.61673,-15.946 120.0898,-30.79751 125.49569,-33.00335 l 9.82892,-4.01061 -22.16231,-12.94347 c -36.93478,-21.57108 -175.58209,-94.99595 -182.98406,-96.90475 -10.49401,-2.70615 -20.85262,2.97831 -52.5679,28.84755 -24.989043,20.38283 -29.120125,25.06518 -29.977734,33.97809 -0.547074,5.68561 4.763768,33.44313 11.801868,61.68337 11.182033,44.86767 13.560006,51.34591 18.847646,51.34591 3.32809,0 58.10114,-13.04674 121.71788,-28.99274 z m 862.7646,2.29782 c 0.7075,-0.41949 0.6205,-1.42859 -0.1934,-2.24243 -0.8139,-0.81385 -6.191,3.64515 -11.9492,9.90884 l -10.4694,11.3886 10.6627,-9.14616 c 5.8645,-5.03036 11.2416,-9.48936 11.9492,-9.90885 z m 137.2753,-36.61017 c -39.1133,-50.04929 -37.3814,-48.89476 -53.1075,-35.40292 -5.0339,4.31873 -7.0932,6.80629 -4.5763,5.52793 2.5169,-1.27836 6.9277,-4.34129 9.8016,-6.80653 2.874,-2.46522 7.2225,-3.71586 9.6634,-2.7792 2.4409,0.93667 14.9979,14.83199 27.9043,30.87849 12.9064,16.0465 24.1282,29.17545 24.9371,29.17545 0.809,0 -5.7712,-9.26695 -14.6226,-20.59322 z m -83.616,-8.48757 9.1525,-8.03364 -9.1525,6.23342 c -5.0339,3.42839 -14.6441,11.22271 -21.3559,17.32072 l -12.2034,11.08729 12.2034,-9.28707 c 6.7118,-5.10789 16.322,-12.90221 21.3559,-17.32072 z M 596.44068,212.30332 c 0,-18.34041 -10.18385,-80.30431 -14.2496,-86.70205 -2.54233,-4.00053 -16.0934,-12.46626 -30.98205,-19.35534 -48.8808,-22.617488 -132.3418,-57.732922 -135.03713,-56.815614 -2.58617,0.880154 23.39997,68.369444 42.23822,109.698054 5.0929,11.17314 12.49172,22.42147 16.44181,24.99628 8.44999,5.50803 104.71784,35.21908 114.72434,35.40727 5.25679,0.0988 6.86441,-1.59404 6.86441,-7.2286 z m 341.69491,-18.60966 c 65.50081,-22.62806 130.07221,-46.51493 137.28151,-50.78444 3.8037,-2.25261 19.2525,-22.62956 34.3306,-45.282101 21.9088,-32.914352 26.3593,-41.39687 22.1594,-42.234157 -5.9123,-1.178625 -57.2377,4.261384 -86.1922,9.135543 -13.8107,2.324895 -22.7942,6.07723 -32.7513,13.68004 C 997.35337,90.127849 889.32203,203.72275 889.32203,208.2176 c 0,1.61903 2.40255,1.97771 5.33899,0.79708 2.93644,-1.18063 22.5,-8.07509 43.47457,-15.32102 z"
       id="path1464" />
    <path
       style="fill:#00112b;fill-opacity:1"
       d="m 1250.8475,170.84746 c 0,6.22342 -11.8528,14.9036 -15.2543,18.30508 -12.2034,12.20339 -23.587,25.28571 -36.6101,36.61017 -50.3449,43.77816 -122.0343,60.77919 -158.6441,122.0339 l 186.1017,85.42373 51.8644,-140.33898"
       id="path1466" />
    <path
       style="fill:#00112b;fill-opacity:1"
       d="M 1244.7458,436.27119 1089.1525,244.0678 1214.2373,128.13559 1269.1525,317.28814"
       id="path1468" />
    <path
       style="fill:#00112b;fill-opacity:1"
       d="m 1253.8983,128.13559 -265.42372,244.0678 189.15252,170.84746 c 2.0339,-9.15254 4.0678,-18.30509 6.1017,-27.45763"
       id="path1470" />
    <path
       style="fill:#003380;fill-opacity:1"
       d="M 1205.0847,216.61017 1003.7288,329.49153 1177.6271,375.25424 1260,298.98305"
       id="path1535" />
    <path
       style="fill:#003380;fill-opacity:1"
       d="M 241.01695,347.79661 411.86441,335.59322 256.27119,424.0678 195.25424,384.40678"
       id="path1537" />
    <path
       style="fill:#003380;fill-opacity:1"
       d="M 787.11864,106.77966 732.20339,237.9661 689.49153,109.83051 744.40678,45.762712"
       id="path1539" />
  </g>
</svg>
